<svg width="48" height="48" viewBox="0 0 48 48" fill="none" xmlns="http://www.w3.org/2000/svg">
<path d="M24 0C10.7452 0 0 10.1577 0 22.6877H48C48 10.1574 37.2548 0 24 0Z" fill="#FFBA04"/>
<path d="M45.375 25.3125C45.375 36.4544 35.7863 45.5187 24 45.5187C12.2137 45.5187 2.62502 36.4544 2.62502 25.3125H0C0 37.8226 10.7663 48 24 48C37.2337 48 48 37.8223 48 25.3125H45.375Z" fill="#FFBA04"/>
<path d="M24.0001 42.3219C33.9215 42.3219 41.9933 34.6915 41.9933 25.3125H39.3683C39.3683 33.3232 32.4742 39.8404 24.0001 39.8404C15.526 39.8404 8.63186 33.3232 8.63186 25.3125H6.00684C6.00684 34.6915 14.0786 42.3219 24.0001 42.3219Z" fill="#FFBA04"/>
</svg>
